<svg viewBox="0 0 100 100" xmlns="http://www.w3.org/2000/svg"><path d="M10.000 53.900 A40.000 40.000 0 1 0 90.000 53.900 A40.000 40.000 0 1 0 10.000 53.900 Z" fill="#D9EDFF"></path><path d="M38.000 86.300 A12 1.5 0 1 0 62.000 86.300 A12 1.5 0 1 0 38.000 86.300 Z" fill="#B0D9FF"></path><path d="M46.5 79.9H53.5V82.9H46.5z" fill="#ffffff" stroke="#020064" stroke-linecap="round" stroke-linejoin="round"></path><path d="M65.81,74.9H34.19a.69.69,0,0,1-.69-.69V58.59a3.69,3.69,0,0,1,3.69-3.69H62.81a3.69,3.69,0,0,1,3.69,3.69V74.21A.69.69,0,0,1,65.81,74.9Z" fill="#B0D9FF"></path><path d="M55.5,82.9h-11a2,2,0,0,0-2,2v1h15v-1A2,2,0,0,0,55.5,82.9Z" fill="#ffffff" stroke="#020064" stroke-linecap="round" stroke-linejoin="round"></path><path d="M63.5,79.9h-27a3,3,0,0,1-3-3v-2h33v2A3,3,0,0,1,63.5,79.9Z" fill="#ffffff" stroke="#020064" stroke-linecap="round" stroke-linejoin="round"></path><path d="M66.5,74.9h-33v-17a3,3,0,0,1,3-3h27a3,3,0,0,1,3,3Z" fill="none" stroke="#020064" stroke-linecap="round" stroke-linejoin="round"></path><path d="M49.500 77.400 A0.500 0.500 0 1 0 50.500 77.400 A0.500 0.500 0 1 0 49.500 77.400 Z" fill="none" stroke="#020064"></path><path d="M43.785,63.119a.915.915,0,0,1-.647,1.121L31.259,67.423a.915.915,0,0,1-1.121-.647L26.345,52.623a.917.917,0,0,1,.648-1.122l8.214-2.2,5.768,3.33Z" fill="#ffffff" stroke="#020064" stroke-linecap="round" stroke-linejoin="round"></path><path d="M35.207 49.3L36.426 53.849 40.975 52.63 35.207 49.3z" fill="#ffffff" stroke="#020064" stroke-linecap="round" stroke-linejoin="round"></path><path d="M32.477 57.398L30.89 60.557 34.05 62.145" fill="none" stroke="#020064" stroke-linecap="round" stroke-linejoin="round"></path><path d="M36.749 55.983L39.908 57.57 38.321 60.729" fill="none" stroke="#020064" stroke-linecap="round" stroke-linejoin="round"></path><path d="M35 60.9L35.5 56.9" fill="none" stroke="#020064" stroke-linecap="round" stroke-linejoin="round"></path><path d="M72.253,65.645a.886.886,0,0,1-1.083.625L56.653,62.38a.884.884,0,0,1-.625-1.083L59,50.2a.884.884,0,0,1,1.083-.625l2.562.686,1.25,2.166,10.248,2.745a.885.885,0,0,1,.625,1.083Z" fill="#ffffff"></path><path d="M72.253,65.645a.886.886,0,0,1-1.083.625L56.653,62.38a.884.884,0,0,1-.625-1.083L59,50.2a.884.884,0,0,1,1.083-.625l2.562.686,1.25,2.166,10.248,2.745a.885.885,0,0,1,.625,1.083Z" fill="none" stroke="#020064" stroke-linecap="round" stroke-linejoin="round"></path><path d="M69.82,18.132a6.913,6.913,0,0,0-10.926-7.126A13.892,13.892,0,0,0,34.407,20c0,.03,0,.058,0,.088A6.793,6.793,0,0,0,33.538,20a6.95,6.95,0,0,0,0,13.9H64.813A8.675,8.675,0,0,0,69.82,18.132Z" fill="#ffffff"></path><path d="M69.82,18.132a6.913,6.913,0,0,0-10.926-7.126A13.892,13.892,0,0,0,34.407,20c0,.03,0,.058,0,.088A6.793,6.793,0,0,0,33.538,20a6.95,6.95,0,0,0,0,13.9H64.813A8.675,8.675,0,0,0,69.82,18.132Z" fill="none" stroke="#020064" stroke-linecap="round" stroke-linejoin="round"></path><path d="M58.414,38.486a2,2,0,0,0-2.828,0L52.5,41.572V23.4a2.5,2.5,0,0,0-5,0V41.572l-3.086-3.086a2,2,0,0,0-2.828,2.828l7,7a2,2,0,0,0,2.828,0l7-7A2,2,0,0,0,58.414,38.486Z" fill="#B0D9FF"></path><path d="M58.414,38.486a2,2,0,0,0-2.828,0L52.5,41.572V23.4a2.5,2.5,0,0,0-5,0V41.572l-3.086-3.086a2,2,0,0,0-2.828,2.828l7,7a2,2,0,0,0,2.828,0l7-7A2,2,0,0,0,58.414,38.486Z" fill="none" stroke="#020064" stroke-linejoin="round"></path></svg>