<svg xmlns="http://www.w3.org/2000/svg" fill="none" viewBox="0 0 100 100"><path fill="#D9EDFF" d="M90 52.194C90.0006 46.2228 88.6643 40.3272 86.0892 34.9398C83.514 29.5524 79.7654 24.8098 75.1183 21.0602C70.4712 17.3105 65.0436 14.6488 59.2336 13.2704C53.4237 11.892 47.3788 11.8319 41.5426 13.0944C35.7064 14.3569 30.2269 16.9101 25.5061 20.5665C20.7853 24.223 16.9431 28.89 14.2612 34.2251C11.5794 39.5602 10.1261 45.428 10.0078 51.3981C9.88961 57.3681 11.1095 63.2889 13.578 68.726H86.422C88.7841 63.5349 90.0043 57.8973 90 52.194V52.194Z"></path><path stroke="#020064" stroke-linecap="round" stroke-linejoin="round" d="M11 68.726H89"></path><path stroke="#020064" stroke-linecap="round" stroke-linejoin="round" d="M6.5 68.726H9"></path><path stroke="#020064" stroke-linecap="round" stroke-linejoin="round" d="M91 68.726H93.5"></path><path fill="#B0D9FF" d="M85.539 89.652C85.539 90.968 70.028 92.035 48.265 92.035C26.502 92.035 15.252 90.968 15.252 89.652C15.252 88.336 26.5 87.268 48.265 87.268C70.03 87.268 85.539 88.335 85.539 89.652Z"></path><path fill="#ffffff" d="M52.999 37.307H47.615V41.759H52.999V37.307Z"></path><path stroke="#020064" stroke-linecap="round" stroke-linejoin="round" d="M52.999 37.307H47.615V41.759H52.999V37.307Z"></path><path fill="#ffffff" stroke="#020064" stroke-linecap="round" stroke-linejoin="round" d="M57.036 41.759H43.577C41.3469 41.759 39.539 43.5669 39.539 45.797V57.91C39.539 60.1402 41.3469 61.948 43.577 61.948H57.036C59.2661 61.948 61.074 60.1402 61.074 57.91V45.797C61.074 43.5669 59.2661 41.759 57.036 41.759Z"></path><path fill="#B0D9FF" stroke="#020064" stroke-linecap="round" stroke-linejoin="round" d="M54.345 61.9481H46.269V68.8031H54.345V61.9481Z"></path><path fill="#B0D9FF" d="M55.69 51.181C55.69 51.8946 55.4066 52.5789 54.9022 53.0835C54.3977 53.5881 53.7135 53.8718 53 53.872H47.615C47.2615 53.8722 46.9115 53.8027 46.5849 53.6675C46.2583 53.5323 45.9615 53.3341 45.7115 53.0842C45.4615 52.8343 45.2632 52.5376 45.1279 52.2111C44.9926 51.8845 44.923 51.5345 44.923 51.181V41.759H55.69V51.181Z"></path><path stroke="#020064" stroke-linecap="round" stroke-linejoin="round" d="M55.69 51.181C55.69 51.8946 55.4066 52.5789 54.9022 53.0835C54.3977 53.5881 53.7135 53.8718 53 53.872H47.615C47.2615 53.8722 46.9115 53.8027 46.5849 53.6675C46.2583 53.5323 45.9615 53.3341 45.7115 53.0842C45.4615 52.8343 45.2632 52.5376 45.1279 52.2111C44.9926 51.8845 44.923 51.5345 44.923 51.181V41.759H55.69V51.181Z"></path><path fill="#ffffff" stroke="#020064" stroke-linecap="round" stroke-linejoin="round" d="M43.849 76.685H56.942C58.0981 75.4658 58.9589 73.9974 59.458 72.393C59.587 71.9868 59.627 71.5575 59.5752 71.1344C59.5235 70.7112 59.3812 70.3042 59.158 69.941C58.9545 69.5995 58.6673 69.3154 58.3234 69.1158C57.9796 68.9161 57.5905 68.8075 57.193 68.8H43.6C43.2033 68.8074 42.815 68.9156 42.4718 69.1145C42.1285 69.3134 41.8416 69.5965 41.638 69.937C41.4148 70.3002 41.2724 70.7072 41.2207 71.1303C41.1689 71.5535 41.2089 71.9828 41.338 72.389C41.8343 73.9947 42.6935 75.4647 43.849 76.685V76.685Z"></path><path fill="#B0D9FF" stroke="#020064" stroke-linecap="round" stroke-linejoin="round" d="M34.7805 42.3156L21.256 57.3051L25.2534 60.9118L38.7779 45.9223L34.7805 42.3156Z"></path><path fill="#ffffff" stroke="#020064" stroke-linecap="round" stroke-linejoin="round" d="M39.539 51.181H34.155C33.0841 51.181 32.057 50.7556 31.2997 49.9983C30.5424 49.241 30.117 48.214 30.117 47.143V45.8C30.117 44.7291 30.5424 43.702 31.2997 42.9447C32.057 42.1875 33.0841 41.762 34.155 41.762H36.847C37.561 41.762 38.2457 42.0456 38.7505 42.5505C39.2554 43.0553 39.539 43.7401 39.539 44.454V51.181Z"></path><path fill="#B0D9FF" stroke="#020064" stroke-linecap="round" stroke-linejoin="round" d="M24.6273 58.6447L21.7845 63.2158L34.3947 71.0581L37.2374 66.4871L24.6273 58.6447Z"></path><path fill="#B0D9FF" stroke="#020064" stroke-linecap="round" stroke-linejoin="round" d="M34.848 79.366C34.7905 79.4412 34.7177 79.5034 34.6346 79.5485C34.5514 79.5937 34.4596 79.6208 34.3652 79.628C34.2708 79.6353 34.176 79.6226 34.0869 79.5907C33.9978 79.5588 33.9164 79.5085 33.848 79.443C32.8821 78.5232 32.1962 77.3487 31.8697 76.0555C31.5433 74.7622 31.5895 73.4029 32.0032 72.1348C32.4168 70.8667 33.1809 69.7416 34.2071 68.8896C35.2334 68.0375 36.4798 67.4934 37.8023 67.32C39.1249 67.1466 40.4694 67.3511 41.6806 67.9098C42.8918 68.4685 43.9201 69.3586 44.6467 70.4773C45.3732 71.5959 45.7683 72.8973 45.7862 74.231C45.8041 75.5647 45.4442 76.8763 44.748 78.014C44.6987 78.0945 44.633 78.1636 44.5553 78.2171C44.4775 78.2705 44.3894 78.3071 44.2967 78.3243C44.2039 78.3415 44.1086 78.3391 44.0168 78.3172C43.9251 78.2953 43.8389 78.2543 43.764 78.197L42.15 76.957C42.0227 76.8592 41.9345 76.7191 41.9013 76.5619C41.8681 76.4048 41.8921 76.241 41.969 76.1C42.2965 75.5006 42.4517 74.8223 42.4173 74.1402C42.383 73.458 42.1606 72.7987 41.7746 72.2352C41.3886 71.6717 40.8542 71.226 40.2305 70.9475C39.6069 70.6691 38.9183 70.5687 38.2411 70.6574C37.5639 70.7462 36.9244 71.0207 36.3936 71.4505C35.8628 71.8804 35.4613 72.4487 35.2336 73.0927C35.006 73.7366 34.961 74.431 35.1036 75.099C35.2463 75.7669 35.5711 76.3823 36.042 76.877C36.1531 76.993 36.219 77.1449 36.2276 77.3053C36.2362 77.4657 36.1871 77.6238 36.089 77.751L34.848 79.366Z"></path><path fill="#ffffff" stroke="#020064" stroke-linecap="round" stroke-linejoin="round" d="M37.237 74.134C39.4671 74.134 41.275 72.3262 41.275 70.096C41.275 67.8659 39.4671 66.058 37.237 66.058C35.0069 66.058 33.199 67.8659 33.199 70.096C33.199 72.3262 35.0069 74.134 37.237 74.134Z"></path><path fill="#ffffff" stroke="#020064" stroke-linecap="round" stroke-linejoin="round" d="M23.184 64.554C25.4141 64.554 27.222 62.7462 27.222 60.516C27.222 58.2859 25.4141 56.478 23.184 56.478C20.9539 56.478 19.146 58.2859 19.146 60.516C19.146 62.7462 20.9539 64.554 23.184 64.554Z"></path><path fill="#B0D9FF" stroke="#020064" stroke-linecap="round" stroke-linejoin="round" d="M65.8317 42.3154L61.8343 45.9221L75.3589 60.9116L79.3562 57.3048L65.8317 42.3154Z"></path><path fill="#ffffff" stroke="#020064" stroke-linecap="round" stroke-linejoin="round" d="M61.074 51.181H66.458C66.9886 51.1815 67.5141 51.0775 68.0045 50.8748C68.4949 50.6721 68.9405 50.3748 69.3159 49.9997C69.6913 49.6247 69.9891 49.1794 70.1922 48.6892C70.3954 48.1991 70.5 47.6736 70.5 47.143V45.8C70.5 44.7291 70.0746 43.702 69.3173 42.9447C68.56 42.1875 67.5329 41.762 66.462 41.762H63.766C63.052 41.762 62.3673 42.0456 61.8625 42.5505C61.3576 43.0553 61.074 43.7401 61.074 44.454V51.181Z"></path><path fill="#B0D9FF" stroke="#020064" stroke-linecap="round" stroke-linejoin="round" d="M75.9688 58.6162L63.3523 66.4543L66.1935 71.0276L78.81 63.1895L75.9688 58.6162Z"></path><path fill="#B0D9FF" stroke="#020064" stroke-linecap="round" stroke-linejoin="round" d="M65.765 80.056C65.8225 80.1311 65.8953 80.1933 65.9784 80.2384C66.0615 80.2836 66.1533 80.3107 66.2476 80.3181C66.3419 80.3254 66.4367 80.3128 66.5259 80.2811C66.615 80.2494 66.6965 80.1993 66.765 80.134C67.7309 79.2142 68.4168 78.0397 68.7433 76.7464C69.0697 75.4532 69.0235 74.0939 68.6098 72.8258C68.1962 71.5577 67.4321 70.4326 66.4059 69.5806C65.3796 68.7285 64.1332 68.1843 62.8107 68.0109C61.4881 67.8376 60.1436 68.0421 58.9324 68.6008C57.7212 69.1595 56.6929 70.0496 55.9663 71.1682C55.2398 72.2869 54.8447 73.5883 54.8268 74.922C54.8089 76.2557 55.1688 77.5673 55.865 78.705C55.9143 78.7854 55.98 78.8546 56.0577 78.9081C56.1355 78.9615 56.2236 78.998 56.3163 79.0153C56.4091 79.0325 56.5044 79.0301 56.5962 79.0082C56.6879 78.9863 56.7741 78.9453 56.849 78.888L58.463 77.648C58.5903 77.5502 58.6785 77.41 58.7117 77.2529C58.7449 77.0958 58.7209 76.932 58.644 76.791C58.3165 76.1916 58.1613 75.5133 58.1957 74.8311C58.23 74.149 58.4524 73.4897 58.8384 72.9262C59.2244 72.3627 59.7588 71.917 60.3825 71.6385C61.0061 71.36 61.6947 71.2596 62.3719 71.3484C63.0491 71.4372 63.6886 71.7117 64.2194 72.1415C64.7502 72.5713 65.1517 73.1397 65.3794 73.7836C65.607 74.4276 65.652 75.122 65.5094 75.7899C65.3667 76.4579 65.0419 77.0733 64.571 77.568C64.4599 77.684 64.394 77.8359 64.3854 77.9963C64.3767 78.1567 64.4259 78.3148 64.524 78.442L65.765 80.056Z"></path><path fill="#ffffff" stroke="#020064" stroke-linecap="round" stroke-linejoin="round" d="M63.375 74.134C65.6051 74.134 67.413 72.3262 67.413 70.096C67.413 67.8659 65.6051 66.058 63.375 66.058C61.1449 66.058 59.337 67.8659 59.337 70.096C59.337 72.3262 61.1449 74.134 63.375 74.134Z"></path><path fill="#ffffff" stroke="#020064" stroke-linecap="round" stroke-linejoin="round" d="M77.429 64.554C79.6591 64.554 81.467 62.7462 81.467 60.516C81.467 58.2859 79.6591 56.478 77.429 56.478C75.1989 56.478 73.391 58.2859 73.391 60.516C73.391 62.7462 75.1989 64.554 77.429 64.554Z"></path><path fill="#B0D9FF" d="M64.553 7.80603H36.238C33.6975 7.80603 31.638 9.86552 31.638 12.406V32.682C31.638 35.2225 33.6975 37.282 36.238 37.282H64.553C67.0935 37.282 69.153 35.2225 69.153 32.682V12.406C69.153 9.86552 67.0935 7.80603 64.553 7.80603Z"></path><path fill="#ffffff" d="M36.154 37.281L65.526 7.91002C65.2071 7.84261 64.882 7.80909 64.556 7.81002H36.238C35.018 7.81002 33.848 8.29466 32.9853 9.15732C32.1226 10.02 31.638 11.19 31.638 12.41V32.682C31.6381 33.8874 32.1113 35.0446 32.9558 35.9047C33.8004 36.7648 34.9488 37.259 36.154 37.281V37.281Z"></path><path stroke="#020064" stroke-linecap="round" stroke-linejoin="round" d="M64.553 7.80603H36.238C33.6975 7.80603 31.638 9.86552 31.638 12.406V32.682C31.638 35.2225 33.6975 37.282 36.238 37.282H64.553C67.0935 37.282 69.153 35.2225 69.153 32.682V12.406C69.153 9.86552 67.0935 7.80603 64.553 7.80603Z"></path><path fill="#020064" d="M37.266 14.39C37.2593 14.321 37.2671 14.2514 37.2888 14.1856C37.3105 14.1197 37.3456 14.0591 37.392 14.0076C37.4383 13.9561 37.4949 13.9147 37.5581 13.8862C37.6213 13.8577 37.6897 13.8427 37.759 13.842C37.8777 13.836 37.9943 13.875 38.0855 13.9512C38.1767 14.0274 38.2358 14.1352 38.251 14.253C38.3574 14.1056 38.4989 13.9871 38.6627 13.9082C38.8265 13.8292 39.0074 13.7924 39.189 13.801C39.4231 13.8203 39.6508 13.8866 39.8586 13.9961C40.0664 14.1055 40.2499 14.2558 40.3982 14.4379C40.5465 14.62 40.6565 14.8302 40.7216 15.0558C40.7867 15.2815 40.8055 15.5179 40.777 15.751C40.8077 16.2121 40.6541 16.6665 40.35 17.0143C40.0458 17.3621 39.616 17.575 39.155 17.606C38.8241 17.6016 38.5054 17.4805 38.255 17.264V18.469C38.2676 18.5409 38.2643 18.6147 38.2454 18.6851C38.2264 18.7556 38.1923 18.821 38.1453 18.8769C38.0984 18.9328 38.0398 18.9777 37.9737 19.0085C37.9075 19.0393 37.8355 19.0553 37.7625 19.0553C37.6895 19.0553 37.6175 19.0393 37.5513 19.0085C37.4852 18.9777 37.4266 18.9328 37.3797 18.8769C37.3327 18.821 37.2986 18.7556 37.2796 18.6851C37.2607 18.6147 37.2574 18.5409 37.27 18.469L37.266 14.39ZM39.025 16.7C39.538 16.7 39.791 16.166 39.791 15.707C39.791 15.248 39.538 14.702 39.025 14.702C38.512 14.702 38.251 15.194 38.251 15.673C38.251 16.152 38.485 16.7 39.025 16.7Z"></path><path fill="#020064" d="M41.178 14.3351C41.1767 14.2688 41.189 14.2031 41.2141 14.1418C41.2393 14.0806 41.2767 14.0251 41.3242 13.9789C41.3716 13.9327 41.428 13.8967 41.4899 13.8732C41.5518 13.8496 41.6178 13.839 41.684 13.8421C41.944 13.8421 42.163 13.9421 42.163 14.2531H42.176C42.243 14.128 42.3429 14.0237 42.4648 13.9513C42.5868 13.8788 42.7262 13.8411 42.868 13.8421C42.9351 13.8422 43.0014 13.8563 43.0627 13.8835C43.124 13.9108 43.1789 13.9505 43.2239 14.0002C43.2689 14.05 43.303 14.1085 43.324 14.1722C43.3451 14.2359 43.3526 14.3033 43.346 14.3701C43.346 14.6911 43.052 14.7121 42.758 14.8491C42.464 14.9861 42.158 15.1151 42.158 15.5061V17.0181C42.1706 17.0899 42.1673 17.1637 42.1484 17.2341C42.1294 17.3046 42.0953 17.3701 42.0483 17.4259C42.0014 17.4818 41.9428 17.5267 41.8767 17.5575C41.8105 17.5884 41.7385 17.6043 41.6655 17.6043C41.5925 17.6043 41.5205 17.5884 41.4543 17.5575C41.3882 17.5267 41.3296 17.4818 41.2827 17.4259C41.2357 17.3701 41.2016 17.3046 41.1826 17.2341C41.1637 17.1637 41.1604 17.0899 41.173 17.0181L41.178 14.3351Z"></path><path fill="#020064" d="M44.5 12.905C44.5011 13.0538 44.4434 13.1969 44.3394 13.3033C44.2355 13.4097 44.0937 13.4707 43.945 13.473C43.7976 13.4669 43.6581 13.4047 43.5551 13.2991C43.4521 13.1935 43.3934 13.0525 43.391 12.905C43.3971 12.7621 43.4581 12.6269 43.5615 12.5279C43.6648 12.4289 43.8024 12.3736 43.9455 12.3736C44.0886 12.3736 44.2262 12.4289 44.3295 12.5279C44.4328 12.6269 44.4939 12.7621 44.5 12.905V12.905ZM43.455 14.39C43.4424 14.3182 43.4457 14.2444 43.4646 14.174C43.4836 14.1035 43.5177 14.038 43.5647 13.9822C43.6116 13.9263 43.6702 13.8814 43.7363 13.8506C43.8025 13.8197 43.8745 13.8038 43.9475 13.8038C44.0205 13.8038 44.0925 13.8197 44.1587 13.8506C44.2248 13.8814 44.2834 13.9263 44.3303 13.9822C44.3773 14.038 44.4114 14.1035 44.4304 14.174C44.4493 14.2444 44.4526 14.3182 44.44 14.39V17.018C44.4526 17.0899 44.4493 17.1637 44.4304 17.2341C44.4114 17.3046 44.3773 17.3701 44.3303 17.4259C44.2834 17.4818 44.2248 17.5267 44.1587 17.5575C44.0925 17.5884 44.0205 17.6043 43.9475 17.6043C43.8745 17.6043 43.8025 17.5884 43.7363 17.5575C43.6702 17.5267 43.6116 17.4818 43.5647 17.4259C43.5177 17.3701 43.4836 17.3046 43.4646 17.2341C43.4457 17.1637 43.4424 17.0899 43.455 17.018V14.39Z"></path><path fill="#020064" d="M44.986 14.3901C44.9793 14.3211 44.9871 14.2514 45.0088 14.1856C45.0305 14.1198 45.0656 14.0592 45.112 14.0076C45.1583 13.9561 45.2149 13.9148 45.2781 13.8863C45.3413 13.8578 45.4097 13.8427 45.479 13.8421C45.5867 13.8319 45.694 13.8641 45.7783 13.9319C45.8625 13.9997 45.9169 14.0977 45.93 14.2051C46.0417 14.0631 46.1877 13.9518 46.3542 13.8818C46.5208 13.8119 46.7024 13.7854 46.882 13.8051C47.0604 13.7928 47.2395 13.8185 47.4072 13.8806C47.5749 13.9427 47.7275 14.0398 47.8549 14.1654C47.9823 14.291 48.0815 14.4422 48.146 14.609C48.2105 14.7758 48.2388 14.9545 48.229 15.1331V17.0221C48.2416 17.0939 48.2383 17.1677 48.2194 17.2382C48.2004 17.3086 48.1663 17.3741 48.1193 17.43C48.0724 17.4858 48.0138 17.5307 47.9477 17.5616C47.8815 17.5924 47.8095 17.6083 47.7365 17.6083C47.6635 17.6083 47.5915 17.5924 47.5253 17.5616C47.4592 17.5307 47.4006 17.4858 47.3537 17.43C47.3067 17.3741 47.2726 17.3086 47.2536 17.2382C47.2347 17.1677 47.2314 17.0939 47.244 17.0221V15.3001C47.25 15.2128 47.238 15.1252 47.2087 15.0428C47.1794 14.9604 47.1335 14.8849 47.0738 14.8209C47.0141 14.757 46.9419 14.706 46.8617 14.6712C46.7815 14.6363 46.695 14.6183 46.6075 14.6183C46.52 14.6183 46.4335 14.6363 46.3533 14.6712C46.2731 14.706 46.2009 14.757 46.1412 14.8209C46.0815 14.8849 46.0356 14.9604 46.0063 15.0428C45.977 15.1252 45.965 15.2128 45.971 15.3001V17.0181C45.9836 17.0899 45.9803 17.1637 45.9614 17.2342C45.9424 17.3046 45.9083 17.3701 45.8613 17.426C45.8144 17.4818 45.7558 17.5267 45.6897 17.5576C45.6235 17.5884 45.5515 17.6043 45.4785 17.6043C45.4055 17.6043 45.3335 17.5884 45.2673 17.5576C45.2012 17.5267 45.1426 17.4818 45.0957 17.426C45.0487 17.3701 45.0146 17.3046 44.9956 17.2342C44.9767 17.1637 44.9734 17.0899 44.986 17.0181V14.3901Z"></path><path fill="#020064" d="M49.028 14.746H48.809C48.7511 14.7509 48.6929 14.7431 48.6384 14.7231C48.5838 14.7032 48.5343 14.6716 48.4932 14.6306C48.4521 14.5896 48.4204 14.5401 48.4003 14.4856C48.3803 14.4311 48.3723 14.3729 48.377 14.315C48.3756 14.2579 48.3859 14.2012 48.4071 14.1481C48.4283 14.0951 48.4601 14.0469 48.5005 14.0065C48.5409 13.9661 48.589 13.9344 48.6421 13.9131C48.6951 13.8919 48.7519 13.8817 48.809 13.883H49.028V13.3C49.0159 13.2283 49.0195 13.1549 49.0387 13.0847C49.0579 13.0146 49.0922 12.9495 49.1391 12.8939C49.186 12.8384 49.2445 12.7938 49.3105 12.7632C49.3764 12.7325 49.4483 12.7167 49.521 12.7167C49.5937 12.7167 49.6656 12.7325 49.7315 12.7632C49.7975 12.7938 49.856 12.8384 49.9029 12.8939C49.9498 12.9495 49.9841 13.0146 50.0033 13.0847C50.0225 13.1549 50.0261 13.2283 50.014 13.3V13.888H50.293C50.3527 13.8831 50.4128 13.8905 50.4694 13.9099C50.5261 13.9294 50.5781 13.9603 50.6222 14.0009C50.6663 14.0414 50.7014 14.0907 50.7255 14.1456C50.7496 14.2004 50.762 14.2597 50.762 14.3195C50.762 14.3794 50.7496 14.4387 50.7255 14.4935C50.7014 14.5484 50.6663 14.5976 50.6222 14.6382C50.5781 14.6788 50.5261 14.7097 50.4694 14.7291C50.4128 14.7486 50.3527 14.756 50.293 14.751H50.014V17.023C50.0261 17.0947 50.0225 17.1682 50.0033 17.2384C49.9841 17.3085 49.9498 17.3736 49.9029 17.4292C49.856 17.4847 49.7975 17.5293 49.7315 17.5599C49.6656 17.5906 49.5937 17.6064 49.521 17.6064C49.4483 17.6064 49.3764 17.5906 49.3105 17.5599C49.2445 17.5293 49.186 17.4847 49.1391 17.4292C49.0922 17.3736 49.0579 17.3085 49.0387 17.2384C49.0195 17.1682 49.0159 17.0947 49.028 17.023V14.746Z"></path><path fill="#020064" d="M37.9 21.293C37.8588 21.3608 37.8016 21.4175 37.7335 21.4581C37.6653 21.4987 37.5882 21.522 37.509 21.526C37.388 21.5256 37.272 21.4782 37.1853 21.3939C37.0985 21.3096 37.0479 21.1949 37.044 21.074C37.0508 20.9781 37.0788 20.8848 37.126 20.801L37.694 19.774C37.7373 19.7061 37.7961 19.6495 37.8657 19.609C37.9353 19.5685 38.0136 19.5451 38.094 19.541C38.2157 19.5414 38.3327 19.5885 38.4207 19.6726C38.5087 19.7567 38.5611 19.8714 38.567 19.993C38.5569 20.0897 38.5262 20.1831 38.477 20.267L37.9 21.293ZM39.3 21.293C39.2589 21.3609 39.2017 21.4176 39.1335 21.4582C39.0654 21.4989 38.9883 21.5221 38.909 21.526C38.788 21.5256 38.672 21.4782 38.5853 21.3939C38.4985 21.3096 38.4479 21.1949 38.444 21.074C38.4517 20.9782 38.4797 20.8852 38.526 20.801L39.094 19.774C39.1373 19.7061 39.1961 19.6495 39.2657 19.609C39.3353 19.5685 39.4136 19.5451 39.494 19.541C39.6156 19.5414 39.7325 19.5885 39.8203 19.6727C39.9082 19.7568 39.9604 19.8715 39.966 19.993C39.9561 20.0895 39.9262 20.1828 39.878 20.267L39.3 21.293Z"></path><path fill="#020064" d="M40.329 20.116C40.329 19.98 40.383 19.8495 40.4793 19.7533C40.5755 19.6571 40.7059 19.603 40.842 19.603C40.9781 19.603 41.1085 19.6571 41.2047 19.7533C41.301 19.8495 41.355 19.98 41.355 20.116V21.567H43.505V20.116C43.505 19.98 43.559 19.8495 43.6553 19.7533C43.7515 19.6571 43.8819 19.603 44.018 19.603C44.1541 19.603 44.2845 19.6571 44.3807 19.7533C44.477 19.8495 44.531 19.98 44.531 20.116V24C44.531 24.1361 44.477 24.2666 44.3807 24.3628C44.2845 24.459 44.1541 24.513 44.018 24.513C43.8819 24.513 43.7515 24.459 43.6553 24.3628C43.559 24.2666 43.505 24.1361 43.505 24V22.512H41.355V24C41.355 24.1361 41.301 24.2666 41.2047 24.3628C41.1085 24.459 40.9781 24.513 40.842 24.513C40.7059 24.513 40.5755 24.459 40.4793 24.3628C40.383 24.2666 40.329 24.1361 40.329 24V20.116Z"></path><path fill="#020064" d="M45.91 23C45.9444 23.2152 46.06 23.409 46.233 23.5415C46.4061 23.6739 46.6233 23.735 46.84 23.712C47.347 23.712 47.696 23.312 47.956 23.312C48.0632 23.3209 48.1634 23.3691 48.2373 23.4474C48.3111 23.5256 48.3534 23.6284 48.356 23.736C48.356 24.161 47.481 24.571 46.748 24.571C46.499 24.5779 46.2514 24.5331 46.0206 24.4393C45.7899 24.3456 45.5811 24.205 45.4075 24.0264C45.2339 23.8478 45.0993 23.6351 45.0121 23.4018C44.9249 23.1685 44.8871 22.9197 44.901 22.671C44.8832 22.4329 44.9137 22.1936 44.9908 21.9676C45.0678 21.7415 45.1898 21.5334 45.3494 21.3557C45.5089 21.1781 45.7028 21.0345 45.9192 20.9336C46.1357 20.8328 46.3703 20.7768 46.609 20.769C46.8477 20.7611 47.0855 20.8017 47.3081 20.8881C47.5307 20.9745 47.7336 21.1051 47.9044 21.2719C48.0753 21.4388 48.2106 21.6385 48.3023 21.859C48.394 22.0795 48.4402 22.3162 48.438 22.555C48.438 22.849 48.309 22.993 48.008 22.993L45.91 23ZM47.457 22.343C47.4497 22.1396 47.3633 21.947 47.2161 21.8063C47.0689 21.6657 46.8726 21.5881 46.669 21.59C46.4677 21.5931 46.2751 21.6726 46.1302 21.8124C45.9854 21.9522 45.8991 22.1419 45.889 22.343H47.457Z"></path><path fill="#020064" d="M48.775 19.774C48.7624 19.7022 48.7657 19.6284 48.7846 19.5579C48.8036 19.4875 48.8377 19.422 48.8847 19.3661C48.9316 19.3103 48.9902 19.2653 49.0563 19.2345C49.1225 19.2037 49.1945 19.1877 49.2675 19.1877C49.3405 19.1877 49.4125 19.2037 49.4787 19.2345C49.5448 19.2653 49.6034 19.3103 49.6503 19.3661C49.6973 19.422 49.7314 19.4875 49.7504 19.5579C49.7693 19.6284 49.7726 19.7022 49.76 19.774V23.99C49.7726 24.0619 49.7693 24.1356 49.7504 24.2061C49.7314 24.2766 49.6973 24.342 49.6503 24.3979C49.6034 24.4538 49.5448 24.4987 49.4787 24.5295C49.4125 24.5603 49.3405 24.5763 49.2675 24.5763C49.1945 24.5763 49.1225 24.5603 49.0563 24.5295C48.9902 24.4987 48.9316 24.4538 48.8847 24.3979C48.8377 24.342 48.8036 24.2766 48.7846 24.2061C48.7657 24.1356 48.7624 24.0619 48.775 23.99V19.774Z"></path><path fill="#020064" d="M50.292 19.774C50.2794 19.7022 50.2827 19.6284 50.3016 19.5579C50.3206 19.4875 50.3547 19.422 50.4017 19.3661C50.4486 19.3103 50.5072 19.2653 50.5733 19.2345C50.6395 19.2037 50.7115 19.1877 50.7845 19.1877C50.8575 19.1877 50.9295 19.2037 50.9957 19.2345C51.0618 19.2653 51.1204 19.3103 51.1673 19.3661C51.2143 19.422 51.2484 19.4875 51.2674 19.5579C51.2863 19.6284 51.2896 19.7022 51.277 19.774V23.99C51.2896 24.0619 51.2863 24.1356 51.2674 24.2061C51.2484 24.2766 51.2143 24.342 51.1673 24.3979C51.1204 24.4538 51.0618 24.4987 50.9957 24.5295C50.9295 24.5603 50.8575 24.5763 50.7845 24.5763C50.7115 24.5763 50.6395 24.5603 50.5733 24.5295C50.5072 24.4987 50.4486 24.4538 50.4017 24.3979C50.3547 24.342 50.3206 24.2766 50.3016 24.2061C50.2827 24.1356 50.2794 24.0619 50.292 23.99V19.774Z"></path><path fill="#020064" d="M55.211 22.6821C55.2283 22.9245 55.1955 23.1679 55.1146 23.3972C55.0338 23.6264 54.9065 23.8365 54.7409 24.0144C54.5753 24.1923 54.3748 24.3341 54.1519 24.4311C53.929 24.5281 53.6886 24.5782 53.4455 24.5782C53.2024 24.5782 52.962 24.5281 52.7391 24.4311C52.5162 24.3341 52.3157 24.1923 52.1501 24.0144C51.9845 23.8365 51.8572 23.6264 51.7764 23.3972C51.6955 23.1679 51.6627 22.9245 51.68 22.6821C51.6608 22.4385 51.6921 22.1936 51.7721 21.9627C51.8521 21.7319 51.979 21.5201 52.1448 21.3406C52.3107 21.1612 52.5118 21.018 52.7357 20.9201C52.9595 20.8222 53.2012 20.7716 53.4455 20.7716C53.6898 20.7716 53.9315 20.8222 54.1553 20.9201C54.3792 21.018 54.5803 21.1612 54.7462 21.3406C54.912 21.5201 55.0389 21.7319 55.1189 21.9627C55.1989 22.1936 55.2302 22.4385 55.211 22.6821V22.6821ZM52.665 22.6821C52.665 23.1551 52.912 23.6751 53.446 23.6751C53.98 23.6751 54.226 23.1551 54.226 22.6821C54.226 22.2091 53.986 21.6821 53.446 21.6821C52.906 21.6821 52.665 22.2101 52.665 22.6821Z"></path><path fill="#020064" d="M37.067 27.239C37.0478 27.1632 37.0387 27.0852 37.04 27.007C37.0421 26.9455 37.0563 26.8849 37.0818 26.8289C37.1073 26.7728 37.1436 26.7223 37.1887 26.6803C37.2337 26.6383 37.2866 26.6057 37.3443 26.5842C37.4021 26.5626 37.4635 26.5527 37.525 26.555C37.6629 26.5487 37.7977 26.5969 37.9004 26.6891C38.0031 26.7813 38.0655 26.9102 38.074 27.048L38.655 29.956H38.669L39.558 26.956C39.5909 26.8398 39.6609 26.7374 39.7573 26.6646C39.8536 26.5917 39.9712 26.5522 40.092 26.5522C40.2128 26.5522 40.3304 26.5917 40.4267 26.6646C40.5231 26.7374 40.5931 26.8398 40.626 26.956L41.516 29.956H41.529L42.111 27.048C42.1195 26.9104 42.1817 26.7817 42.2842 26.6895C42.3867 26.5973 42.5213 26.549 42.659 26.555C42.7205 26.5527 42.7819 26.5626 42.8397 26.5842C42.8974 26.6057 42.9503 26.6383 42.9953 26.6803C43.0404 26.7223 43.0767 26.7728 43.1022 26.8289C43.1277 26.8849 43.1419 26.9455 43.144 27.007C43.1453 27.0852 43.1362 27.1632 43.117 27.239L42.248 30.976C42.2166 31.1308 42.1314 31.2693 42.0074 31.3671C41.8834 31.4649 41.7288 31.5155 41.571 31.51C41.419 31.5116 41.2707 31.4636 41.1484 31.3734C41.026 31.2832 40.9364 31.1557 40.893 31.01L40.1 28.368H40.086L39.293 31.01C39.2496 31.1557 39.16 31.2832 39.0376 31.3734C38.9153 31.4636 38.767 31.5116 38.615 31.51C38.4571 31.5154 38.3025 31.4647 38.1784 31.367C38.0543 31.2692 37.9688 31.1307 37.937 30.976L37.067 27.239Z"></path><path fill="#020064" d="M46.609 29.655C46.6263 29.8975 46.5935 30.1409 46.5126 30.3701C46.4318 30.5993 46.3045 30.8094 46.1389 30.9873C45.9733 31.1652 45.7728 31.3071 45.5499 31.4041C45.327 31.5011 45.0866 31.5512 44.8435 31.5512C44.6004 31.5512 44.36 31.5011 44.1371 31.4041C43.9142 31.3071 43.7137 31.1652 43.5481 30.9873C43.3825 30.8094 43.2552 30.5993 43.1744 30.3701C43.0935 30.1409 43.0607 29.8975 43.078 29.655C43.0588 29.4115 43.0901 29.1666 43.1701 28.9357C43.2501 28.7048 43.377 28.493 43.5428 28.3136C43.7087 28.1342 43.9098 27.991 44.1337 27.8931C44.3575 27.7951 44.5992 27.7446 44.8435 27.7446C45.0878 27.7446 45.3295 27.7951 45.5533 27.8931C45.7772 27.991 45.9783 28.1342 46.1442 28.3136C46.31 28.493 46.4369 28.7048 46.5169 28.9357C46.5969 29.1666 46.6282 29.4115 46.609 29.655ZM44.063 29.655C44.063 30.127 44.31 30.647 44.843 30.647C45.376 30.647 45.624 30.127 45.624 29.655C45.624 29.183 45.383 28.649 44.843 28.649C44.303 28.649 44.063 29.183 44.063 29.655Z"></path><path fill="#020064" d="M47.011 28.2801C47.0096 28.2138 47.0217 28.148 47.0468 28.0866C47.0719 28.0253 47.1094 27.9698 47.1568 27.9236C47.2043 27.8773 47.2608 27.8413 47.3227 27.8178C47.3847 27.7944 47.4508 27.7839 47.517 27.7871C47.777 27.7871 47.996 27.8871 47.996 28.1971H48.009C48.0762 28.0723 48.1762 27.9682 48.2981 27.896C48.42 27.8237 48.5593 27.7861 48.701 27.7871C48.768 27.787 48.8343 27.801 48.8956 27.8281C48.9569 27.8553 49.0118 27.8949 49.0568 27.9446C49.1019 27.9942 49.136 28.0527 49.157 28.1164C49.1781 28.18 49.1856 28.2473 49.179 28.3141C49.179 28.6351 48.885 28.6561 48.591 28.7931C48.297 28.9301 48 29.0601 48 29.4501V30.9621C48.0126 31.0339 48.0093 31.1077 47.9904 31.1781C47.9714 31.2486 47.9373 31.3141 47.8903 31.3699C47.8434 31.4258 47.7848 31.4707 47.7187 31.5015C47.6525 31.5324 47.5805 31.5483 47.5075 31.5483C47.4345 31.5483 47.3625 31.5324 47.2963 31.5015C47.2302 31.4707 47.1716 31.4258 47.1247 31.3699C47.0777 31.3141 47.0436 31.2486 47.0246 31.1781C47.0057 31.1077 47.0024 31.0339 47.015 30.9621L47.011 28.2801Z"></path><path fill="#020064" d="M49.287 26.747C49.2744 26.6752 49.2777 26.6014 49.2966 26.531C49.3156 26.4605 49.3497 26.395 49.3967 26.3392C49.4436 26.2833 49.5022 26.2384 49.5683 26.2076C49.6345 26.1767 49.7065 26.1608 49.7795 26.1608C49.8525 26.1608 49.9245 26.1767 49.9907 26.2076C50.0568 26.2384 50.1154 26.2833 50.1623 26.3392C50.2093 26.395 50.2434 26.4605 50.2624 26.531C50.2813 26.6014 50.2846 26.6752 50.272 26.747V30.962C50.2846 31.0339 50.2813 31.1077 50.2624 31.1781C50.2434 31.2486 50.2093 31.3141 50.1623 31.3699C50.1154 31.4258 50.0568 31.4707 49.9907 31.5015C49.9245 31.5324 49.8525 31.5483 49.7795 31.5483C49.7065 31.5483 49.6345 31.5324 49.5683 31.5015C49.5022 31.4707 49.4436 31.4258 49.3967 31.3699C49.3497 31.3141 49.3156 31.2486 49.2966 31.1781C49.2777 31.1077 49.2744 31.0339 49.287 30.962V26.747Z"></path><path fill="#020064" d="M54.186 30.9621C54.1927 31.0311 54.1849 31.1007 54.1632 31.1665C54.1415 31.2324 54.1064 31.293 54.06 31.3445C54.0137 31.396 53.9571 31.4374 53.8939 31.4659C53.8307 31.4944 53.7623 31.5094 53.693 31.5101C53.5743 31.5164 53.4576 31.4776 53.3662 31.4016C53.2748 31.3256 53.2154 31.2179 53.2 31.1001C53.0985 31.2433 52.9633 31.3594 52.8063 31.438C52.6494 31.5167 52.4755 31.5555 52.3 31.5511C51.8391 31.521 51.409 31.3091 51.1042 30.962C50.7995 30.6149 50.6451 30.161 50.675 29.7001C50.6465 29.467 50.6653 29.2305 50.7304 29.0048C50.7955 28.7792 50.9055 28.569 51.0538 28.3869C51.2021 28.2048 51.3856 28.0545 51.5934 27.9451C51.8012 27.8357 52.0289 27.7693 52.263 27.7501C52.6063 27.7475 52.9391 27.8689 53.2 28.0921V26.7471C53.1879 26.6754 53.1915 26.6019 53.2107 26.5318C53.2299 26.4616 53.2642 26.3965 53.3111 26.341C53.358 26.2854 53.4165 26.2408 53.4825 26.2102C53.5484 26.1796 53.6203 26.1637 53.693 26.1637C53.7657 26.1637 53.8376 26.1796 53.9035 26.2102C53.9695 26.2408 54.028 26.2854 54.0749 26.341C54.1218 26.3965 54.1561 26.4616 54.1753 26.5318C54.1945 26.6019 54.1981 26.6754 54.186 26.7471V30.9621ZM52.427 28.6491C51.914 28.6491 51.66 29.1901 51.66 29.6551C51.66 30.1201 51.914 30.6471 52.427 30.6471C52.967 30.6471 53.2 30.1001 53.2 29.6211C53.2 29.1421 52.954 28.6491 52.427 28.6491Z"></path><path fill="#020064" d="M57.214 28.2861C57.3196 28.2863 57.4227 28.3178 57.5104 28.3766C57.5981 28.4354 57.6664 28.5188 57.7066 28.6164C57.7469 28.714 57.7573 28.8213 57.7366 28.9249C57.7159 29.0284 57.665 29.1234 57.5902 29.198C57.5155 29.2726 57.4204 29.3234 57.3168 29.3439C57.2133 29.3644 57.1059 29.3538 57.0084 29.3133C56.9109 29.2729 56.8276 29.2044 56.7689 29.1166C56.7103 29.0288 56.679 28.9256 56.679 28.8201C56.679 28.7499 56.6928 28.6803 56.7197 28.6155C56.7466 28.5506 56.7861 28.4917 56.8358 28.4421C56.8855 28.3925 56.9444 28.3532 57.0093 28.3264C57.0742 28.2997 57.1438 28.2859 57.214 28.2861V28.2861ZM57.214 30.4861C57.3196 30.4863 57.4227 30.5178 57.5104 30.5766C57.5981 30.6354 57.6664 30.7188 57.7066 30.8164C57.7469 30.914 57.7573 31.0213 57.7366 31.1249C57.7159 31.2284 57.665 31.3234 57.5902 31.398C57.5155 31.4726 57.4204 31.5234 57.3168 31.5439C57.2133 31.5644 57.1059 31.5538 57.0084 31.5133C56.9109 31.4729 56.8276 31.4044 56.7689 31.3166C56.7103 31.2288 56.679 31.1256 56.679 31.0201C56.6786 30.9496 56.6922 30.8798 56.7189 30.8146C56.7456 30.7494 56.785 30.6901 56.8347 30.6402C56.8844 30.5903 56.9435 30.5507 57.0086 30.5237C57.0737 30.4968 57.1435 30.4829 57.214 30.4831V30.4861Z"></path><path fill="#020064" d="M60.189 29.053C60.2961 29.0634 60.3956 29.1132 60.468 29.1929C60.5403 29.2726 60.5804 29.3764 60.5804 29.484C60.5804 29.5917 60.5403 29.6955 60.468 29.7752C60.3956 29.8548 60.2961 29.9047 60.189 29.915H58.731C58.6239 29.9047 58.5244 29.8548 58.452 29.7752C58.3797 29.6955 58.3396 29.5917 58.3396 29.484C58.3396 29.3764 58.3797 29.2726 58.452 29.1929C58.5244 29.1132 58.6239 29.0634 58.731 29.053H60.189Z"></path><path fill="#020064" d="M60.822 32.125C60.8501 31.9707 60.8937 31.8196 60.952 31.674C61.1828 30.9784 61.3029 30.2509 61.308 29.518C61.3135 28.8302 61.2075 28.146 60.994 27.492C60.9237 27.3164 60.8662 27.136 60.822 26.952C60.819 26.8937 60.8282 26.8354 60.8492 26.7809C60.8701 26.7264 60.9023 26.6769 60.9436 26.6356C60.9849 26.5943 61.0344 26.5622 61.0889 26.5412C61.1434 26.5203 61.2017 26.511 61.26 26.514C61.3375 26.5205 61.4117 26.5481 61.4745 26.594C61.5374 26.6399 61.5863 26.7022 61.616 26.774C61.9821 27.6426 62.1708 28.5755 62.171 29.518C62.1851 30.5311 61.9502 31.532 61.487 32.433C61.4569 32.4621 61.4214 32.485 61.3824 32.5002C61.3434 32.5155 61.3018 32.5229 61.26 32.522C61.2051 32.5251 61.1501 32.5173 61.0982 32.4989C61.0464 32.4806 60.9987 32.4521 60.9579 32.4152C60.9172 32.3783 60.8842 32.3336 60.8608 32.2838C60.8375 32.234 60.8243 32.18 60.822 32.125V32.125Z"></path><path stroke="#020064" stroke-linecap="round" stroke-linejoin="round" d="M36.237 34.407C35.7797 34.4065 35.3412 34.2246 35.0178 33.9012C34.6944 33.5778 34.5125 33.1394 34.512 32.682V12.406C34.5125 11.9487 34.6944 11.5102 35.0178 11.1869C35.3412 10.8635 35.7797 10.6816 36.237 10.681H64.553C65.0103 10.6816 65.4488 10.8635 65.7722 11.1869C66.0956 11.5102 66.2775 11.9487 66.278 12.406V32.683C66.2775 33.1404 66.0956 33.5788 65.7722 33.9022C65.4488 34.2256 65.0103 34.4075 64.553 34.408H36.237V34.407Z"></path><path stroke="#020064" stroke-linecap="round" stroke-linejoin="round" d="M20.129 85.83C20.129 85.83 10.381 85 10.381 64.821C10.381 44.642 31.549 39.533 31.549 28.744"></path><path fill="#ffffff" stroke="#020064" stroke-linecap="round" stroke-linejoin="round" d="M80.617 83.4C80.5806 83.1234 80.4449 82.8695 80.2352 82.6855C80.0254 82.5015 79.756 82.4001 79.477 82.4H21.136C20.857 82.3999 20.5874 82.5012 20.3776 82.6852C20.1678 82.8693 20.0322 83.1233 19.996 83.4L19.506 87.081C19.4847 87.2433 19.4982 87.4083 19.5457 87.5649C19.5932 87.7215 19.6736 87.8662 19.7815 87.9892C19.8894 88.1123 20.0224 88.2109 20.1715 88.2785C20.3205 88.346 20.4823 88.381 20.646 88.381H79.967C80.1307 88.381 80.2925 88.346 80.4415 88.2785C80.5906 88.2109 80.7236 88.1123 80.8315 87.9892C80.9394 87.8662 81.0198 87.7215 81.0673 87.5649C81.1148 87.4083 81.1284 87.2433 81.107 87.081L80.617 83.4Z"></path><path fill="#ffffff" stroke="#020064" stroke-linecap="round" stroke-linejoin="round" d="M26.767 80.364C26.7214 80.0964 26.5825 79.8535 26.3749 79.6785C26.1673 79.5035 25.9045 79.4077 25.633 79.408H23.327C23.0556 79.4079 22.7928 79.5038 22.5853 79.6788C22.3777 79.8537 22.2388 80.0965 22.193 80.364L21.844 82.405H27.116L26.767 80.364Z"></path><path fill="#ffffff" stroke="#020064" stroke-linecap="round" stroke-linejoin="round" d="M34.146 80.364C34.1002 80.0965 33.9613 79.8537 33.7537 79.6788C33.5462 79.5038 33.2834 79.4079 33.012 79.408H30.706C30.4346 79.4079 30.1718 79.5038 29.9643 79.6788C29.7567 79.8537 29.6178 80.0965 29.572 80.364L29.223 82.405H34.495L34.146 80.364Z"></path><path fill="#ffffff" stroke="#020064" stroke-linecap="round" stroke-linejoin="round" d="M41.525 80.364C41.4792 80.0965 41.3402 79.8537 41.1327 79.6788C40.9252 79.5038 40.6624 79.4079 40.391 79.408H38.085C37.8136 79.4079 37.5508 79.5038 37.3433 79.6788C37.1357 79.8537 36.9968 80.0965 36.951 80.364L36.6 82.405H41.872L41.525 80.364Z"></path><path fill="#ffffff" stroke="#020064" stroke-linecap="round" stroke-linejoin="round" d="M48.9 80.364C48.8542 80.0965 48.7152 79.8537 48.5077 79.6788C48.3002 79.5038 48.0374 79.4079 47.766 79.408H45.464C45.1926 79.4079 44.9298 79.5038 44.7223 79.6788C44.5148 79.8537 44.3758 80.0965 44.33 80.364L43.981 82.405H49.253L48.9 80.364Z"></path><path fill="#ffffff" stroke="#020064" stroke-linecap="round" stroke-linejoin="round" d="M56.283 80.364C56.2372 80.0965 56.0983 79.8537 55.8907 79.6788C55.6832 79.5038 55.4204 79.4079 55.149 79.408H52.843C52.5716 79.4079 52.3088 79.5038 52.1013 79.6788C51.8937 79.8537 51.7548 80.0965 51.709 80.364L51.36 82.405H56.632L56.283 80.364Z"></path><path fill="#ffffff" stroke="#020064" stroke-linecap="round" stroke-linejoin="round" d="M63.662 80.364C63.6162 80.0965 63.4773 79.8537 63.2697 79.6788C63.0622 79.5038 62.7994 79.4079 62.528 79.408H60.222C59.9505 79.4077 59.6877 79.5035 59.4801 79.6785C59.2725 79.8535 59.1336 80.0964 59.088 80.364L58.739 82.405H64.011L63.662 80.364Z"></path><path fill="#ffffff" stroke="#020064" stroke-linecap="round" stroke-linejoin="round" d="M71.041 80.364C70.9952 80.0965 70.8562 79.8537 70.6487 79.6788C70.4412 79.5038 70.1784 79.4079 69.907 79.408H67.6C67.3287 79.4079 67.0661 79.5039 66.8587 79.6789C66.6513 79.8538 66.5126 80.0966 66.467 80.364L66.118 82.405H71.39L71.041 80.364Z"></path><path fill="#ffffff" stroke="#020064" stroke-linecap="round" stroke-linejoin="round" d="M78.42 80.364C78.3742 80.0965 78.2353 79.8537 78.0277 79.6788C77.8202 79.5038 77.5574 79.4079 77.286 79.408H74.979C74.7077 79.4079 74.4451 79.5039 74.2377 79.6789C74.0303 79.8538 73.8916 80.0966 73.846 80.364L73.5 82.405H78.772L78.42 80.364Z"></path></svg>